<?xml version="1.0" encoding="UTF-8" standalone="no"?>
<!-- Created with Inkscape (http://www.inkscape.org/) -->

<svg
   xmlns:dc="http://purl.org/dc/elements/1.1/"
   xmlns:cc="http://creativecommons.org/ns#"
   xmlns:rdf="http://www.w3.org/1999/02/22-rdf-syntax-ns#"
   xmlns:svg="http://www.w3.org/2000/svg"
   xmlns="http://www.w3.org/2000/svg"
   xmlns:sodipodi="http://sodipodi.sourceforge.net/DTD/sodipodi-0.dtd"
   xmlns:inkscape="http://www.inkscape.org/namespaces/inkscape"
   width="192.83363mm"
   height="20.639578mm"
   viewBox="0 0 192.83363 20.639578"
   version="1.1"
   id="svg8"
   inkscape:version="0.92.3 (unknown)"
   sodipodi:docname="logo-horizontal-white.svg">
  <defs
     id="defs2">
    <marker
       inkscape:isstock="true"
       style="overflow:visible"
       id="marker5675"
       refX="0"
       refY="0"
       orient="auto"
       inkscape:stockid="TriangleOutL">
      <path
         transform="scale(0.8)"
         style="fill:#000000;fill-opacity:1;fill-rule:evenodd;stroke:#000000;stroke-width:1.00000003pt;stroke-opacity:1"
         d="M 5.77,0 -2.88,5 V -5 Z"
         id="path5673"
         inkscape:connector-curvature="0" />
    </marker>
    <marker
       inkscape:isstock="true"
       style="overflow:visible"
       id="marker5607"
       refX="0"
       refY="0"
       orient="auto"
       inkscape:stockid="TriangleOutL">
      <path
         transform="scale(0.8)"
         style="fill:#000000;fill-opacity:1;fill-rule:evenodd;stroke:#000000;stroke-width:1.00000003pt;stroke-opacity:1"
         d="M 5.77,0 -2.88,5 V -5 Z"
         id="path5605"
         inkscape:connector-curvature="0" />
    </marker>
    <marker
       inkscape:isstock="true"
       style="overflow:visible"
       id="marker4665"
       refX="0"
       refY="0"
       orient="auto"
       inkscape:stockid="TriangleOutL">
      <path
         transform="scale(0.8)"
         style="fill:#ffffff;fill-opacity:1;fill-rule:evenodd;stroke:#ffffff;stroke-width:1.00000003pt;stroke-opacity:1"
         d="M 5.77,0 -2.88,5 V -5 Z"
         id="path4663"
         inkscape:connector-curvature="0" />
    </marker>
    <marker
       inkscape:isstock="true"
       style="overflow:visible"
       id="marker1839"
       refX="0"
       refY="0"
       orient="auto"
       inkscape:stockid="TriangleOutL">
      <path
         transform="scale(0.8)"
         style="fill:#ffffff;fill-opacity:1;fill-rule:evenodd;stroke:#ffffff;stroke-width:1.00000003pt;stroke-opacity:1"
         d="M 5.77,0 -2.88,5 V -5 Z"
         id="path1837"
         inkscape:connector-curvature="0" />
    </marker>
  </defs>
  <sodipodi:namedview
     id="base"
     pagecolor="#ffffff"
     bordercolor="#666666"
     borderopacity="1.0"
     inkscape:pageopacity="0.0"
     inkscape:pageshadow="2"
     inkscape:zoom="0.7"
     inkscape:cx="-92.706214"
     inkscape:cy="154.50632"
     inkscape:document-units="mm"
     inkscape:current-layer="text817"
     showgrid="false"
     inkscape:window-width="1535"
     inkscape:window-height="876"
     inkscape:window-x="65"
     inkscape:window-y="24"
     inkscape:window-maximized="1"
     showguides="true"
     inkscape:guide-bbox="true"
     fit-margin-top="2"
     fit-margin-left="2"
     fit-margin-bottom="2"
     fit-margin-right="2">
    <sodipodi:guide
       position="8.4687732,1.2855035"
       orientation="1,0"
       id="guide861"
       inkscape:locked="false" />
    <sodipodi:guide
       position="8.8613262,16.177424"
       orientation="0,1"
       id="guide865"
       inkscape:locked="false" />
    <sodipodi:guide
       position="15.46646,11.214574"
       orientation="0,1"
       id="guide5807"
       inkscape:locked="false" />
  </sodipodi:namedview>
  <metadata
     id="metadata5">
    <rdf:RDF>
      <cc:Work
         rdf:about="">
        <dc:format>image/svg+xml</dc:format>
        <dc:type
           rdf:resource="http://purl.org/dc/dcmitype/StillImage" />
        <dc:title></dc:title>
      </cc:Work>
    </rdf:RDF>
  </metadata>
  <g
     inkscape:label="Layer 1"
     inkscape:groupmode="layer"
     id="layer1"
     transform="translate(-12.645519,-77.160367)">
    <g
       aria-label="Open Trade Statistics"
       style="font-style:normal;font-weight:normal;font-size:10.58333302px;line-height:125%;font-family:sans-serif;letter-spacing:0px;word-spacing:0px;fill:#000000;fill-opacity:1;stroke:none;stroke-width:0.26458332px;stroke-linecap:butt;stroke-linejoin:miter;stroke-opacity:1"
       id="text817">
      <path
         d="m 34.876618,83.269278 c 0.846667,0 1.614311,0.197555 2.302933,0.592666 0.699911,0.383823 1.247422,0.931334 1.642533,1.642534 0.395111,0.699911 0.592667,1.518355 0.592667,2.455333 0,0.936977 -0.197556,1.761066 -0.592667,2.472266 -0.395111,0.699911 -0.942622,1.247423 -1.642533,1.642534 -0.688622,0.383822 -1.456266,0.575733 -2.302933,0.575733 -1.162755,0 -2.077155,-0.366889 -2.7432,-1.100667 v 4.250267 h -2.6416 v -12.3952 h 2.523067 v 1.049867 c 0.654755,-0.790222 1.608666,-1.185333 2.861733,-1.185333 z m -0.4572,7.213599 c 0.677333,0 1.230489,-0.225778 1.659467,-0.677333 0.440267,-0.462845 0.6604,-1.078089 0.6604,-1.845733 0,-0.767645 -0.220133,-1.377245 -0.6604,-1.8288 -0.428978,-0.462845 -0.982134,-0.694267 -1.659467,-0.694267 -0.677333,0 -1.236133,0.231422 -1.6764,0.694267 -0.428978,0.451555 -0.643467,1.061155 -0.643467,1.8288 0,0.767644 0.214489,1.382888 0.643467,1.845733 0.440267,0.451555 0.999067,0.677333 1.6764,0.677333 z"
         style="font-style:normal;font-variant:normal;font-weight:bold;font-stretch:normal;font-size:16.93333244px;font-family:Montserrat;-inkscape-font-specification:'Montserrat Bold';stroke-width:0.26458332px;stroke:none;fill:#ffffff"
         id="path824"
         inkscape:connector-curvature="0"
         sodipodi:nodetypes="sccsccsccccccsscscscscs" />
      <path
         d="m 50.090423,87.993678 c 0,0.03387 -0.01693,0.270933 -0.0508,0.7112 h -6.891866 c 0.124178,0.564444 0.417689,1.010355 0.880533,1.337733 0.462845,0.327377 1.038578,0.491066 1.7272,0.491066 0.474133,0 0.891822,-0.06773 1.253067,-0.2032 0.372533,-0.146755 0.716844,-0.372533 1.032933,-0.677333 l 1.405467,1.524 c -0.857956,0.982133 -2.111023,1.4732 -3.7592,1.4732 -1.027289,0 -1.936044,-0.197556 -2.726267,-0.592667 -0.790222,-0.4064 -1.399822,-0.9652 -1.8288,-1.6764 -0.428977,-0.7112 -0.643466,-1.518355 -0.643466,-2.421466 0,-0.891822 0.208844,-1.693333 0.626533,-2.404533 0.428978,-0.722489 1.010356,-1.281289 1.744133,-1.6764 0.745067,-0.4064 1.5748,-0.6096 2.4892,-0.6096 0.891822,0 1.698978,0.191911 2.421467,0.575733 0.722489,0.383822 1.286933,0.936978 1.693333,1.659467 0.417689,0.7112 0.626533,1.540933 0.626533,2.4892 z m -4.724399,-2.726267 c -0.598311,0 -1.100667,0.169333 -1.507067,0.508 -0.4064,0.338667 -0.654756,0.801511 -0.745067,1.388533 h 4.487333 c -0.09031,-0.575733 -0.338666,-1.032933 -0.745066,-1.3716 -0.4064,-0.349955 -0.903111,-0.524933 -1.490133,-0.524933 z"
         style="font-style:normal;font-variant:normal;font-weight:bold;font-stretch:normal;font-size:16.93333244px;font-family:Montserrat;-inkscape-font-specification:'Montserrat Bold';stroke-width:0.26458332px;stroke:none;fill:#ffffff"
         id="path826"
         inkscape:connector-curvature="0"
         sodipodi:nodetypes="scccscccscssccsscssscccs" />
      <path
         d="m 57.386309,83.269278 c 1.128889,0 2.037644,0.338667 2.726267,1.016 0.699911,0.677333 1.049866,1.682044 1.049866,3.014133 v 5.215466 h -2.6416 v -4.809066 c 0,-0.722489 -0.158044,-1.258711 -0.474133,-1.608667 -0.316089,-0.361244 -0.773289,-0.541866 -1.3716,-0.541866 -0.666044,0 -1.196622,0.208844 -1.591733,0.626533 -0.395111,0.4064 -0.592667,1.016 -0.592667,1.8288 v 4.504266 h -2.6416 v -9.110133 h 2.523067 v 1.0668 c 0.349955,-0.383822 0.784578,-0.677333 1.303867,-0.880533 0.519289,-0.214489 1.089377,-0.321733 1.710266,-0.321733 z"
         style="font-style:normal;font-variant:normal;font-weight:bold;font-stretch:normal;font-size:16.93333244px;font-family:Montserrat;-inkscape-font-specification:'Montserrat Bold';stroke-width:0.26458332px;stroke:none;fill:#ffffff"
         id="path828"
         inkscape:connector-curvature="0"
         sodipodi:nodetypes="scsccscscsccccccs" />
      <path
         d="m 70.994093,82.896744 h -3.793067 v -2.235199 h 10.329333 v 2.235199 h -3.793066 v 9.618133 h -2.7432 z"
         style="font-style:normal;font-variant:normal;font-weight:bold;font-stretch:normal;font-size:16.93333244px;font-family:Montserrat;-inkscape-font-specification:'Montserrat Bold';stroke-width:0.26458332px;stroke:none;fill:#ffffff"
         id="path830"
         inkscape:connector-curvature="0"
         sodipodi:nodetypes="ccccccccc" />
      <path
         d="m 81.128165,84.607011 c 0.316089,-0.440267 0.739422,-0.773289 1.27,-0.999067 0.541867,-0.225777 1.162756,-0.338666 1.862667,-0.338666 v 2.4384 c -0.293511,-0.02258 -0.491067,-0.03387 -0.592667,-0.03387 -0.756355,0 -1.349022,0.214489 -1.778,0.643467 -0.428978,0.417689 -0.643467,1.049866 -0.643467,1.896533 v 4.301066 h -2.641599 v -9.110133 h 2.523066 z"
         style="font-style:normal;font-variant:normal;font-weight:bold;font-stretch:normal;font-size:16.93333244px;font-family:Montserrat;-inkscape-font-specification:'Montserrat Bold';stroke-width:0.26458332px;stroke:none;fill:#ffffff"
         id="path832"
         inkscape:connector-curvature="0"
         sodipodi:nodetypes="ccccscsccccc" />
      <path
         d="m 89.456451,83.269278 c 1.411111,0 2.494844,0.338667 3.251199,1.016 0.756356,0.666044 1.134534,1.676399 1.134534,3.031066 v 5.198533 h -2.472267 v -1.134533 c -0.496711,0.846667 -1.4224,1.27 -2.777066,1.27 -0.699911,0 -1.309511,-0.118533 -1.8288,-0.3556 -0.508,-0.237067 -0.897467,-0.564444 -1.1684,-0.982133 -0.270933,-0.417689 -0.4064,-0.891823 -0.4064,-1.4224 0,-0.846667 0.316089,-1.512711 0.948266,-1.998133 0.643467,-0.485423 1.631245,-0.728134 2.963334,-0.728134 h 2.099733 c 0,-0.575733 -0.174978,-1.016 -0.524934,-1.3208 -0.349955,-0.316089 -0.874888,-0.474133 -1.574799,-0.474133 -0.485423,0 -0.965201,0.07902 -1.439334,0.237067 -0.462844,0.146755 -0.857955,0.349955 -1.185333,0.6096 l -0.948267,-1.845734 c 0.496711,-0.349955 1.089378,-0.620889 1.778,-0.8128 0.699911,-0.191911 1.416756,-0.287866 2.150534,-0.287866 z m -0.2032,7.603066 c 0.451555,0 0.852311,-0.1016 1.202266,-0.3048 0.349955,-0.214489 0.598311,-0.524933 0.745067,-0.931333 v -0.931333 h -1.811867 c -1.083733,0 -1.6256,0.3556 -1.6256,1.066799 0,0.338667 0.129822,0.6096 0.389467,0.8128 0.270933,0.191911 0.637822,0.287867 1.100667,0.287867 z"
         style="font-style:normal;font-variant:normal;font-weight:bold;font-stretch:normal;font-size:16.93333244px;font-family:Montserrat;-inkscape-font-specification:'Montserrat Bold';stroke-width:0.26458332px;stroke:none;fill:#ffffff"
         id="path834"
         inkscape:connector-curvature="0"
         sodipodi:nodetypes="scscccscsscsccsccccsscccsscs" />
      <path
         d="m 105.61165,79.950345 v 12.564532 h -2.52307 v -1.049866 c -0.65475,0.790222 -1.60302,1.185333 -2.8448,1.185333 -0.857956,0 -1.636889,-0.191911 -2.3368,-0.575733 -0.688623,-0.383823 -1.230489,-0.931334 -1.6256,-1.642534 -0.395111,-0.7112 -0.592667,-1.535289 -0.592667,-2.472266 0,-0.936978 0.197556,-1.761067 0.592667,-2.472267 0.395111,-0.7112 0.936977,-1.258711 1.6256,-1.642533 0.699911,-0.383822 1.478844,-0.575733 2.3368,-0.575733 1.16275,0 2.07151,0.366889 2.72627,1.100666 v -4.419599 z m -4.91067,10.532532 c 0.66605,0 1.2192,-0.225778 1.65947,-0.677333 0.44027,-0.462845 0.6604,-1.078089 0.6604,-1.845733 0,-0.767645 -0.22013,-1.377245 -0.6604,-1.8288 -0.44027,-0.462845 -0.99342,-0.694267 -1.65947,-0.694267 -0.67733,0 -1.236133,0.231422 -1.6764,0.694267 -0.440267,0.451555 -0.6604,1.061155 -0.6604,1.8288 0,0.767644 0.220133,1.382888 0.6604,1.845733 0.440267,0.451555 0.99907,0.677333 1.6764,0.677333 z"
         style="font-style:normal;font-variant:normal;font-weight:bold;font-stretch:normal;font-size:16.93333244px;font-family:Montserrat;-inkscape-font-specification:'Montserrat Bold';stroke-width:0.26458332px;stroke:none;fill:#ffffff"
         id="path836"
         inkscape:connector-curvature="0"
         sodipodi:nodetypes="ccccscssscscccscscscscs" />
      <path
         d="m 116.96386,87.993678 c 0,0.03387 -0.0169,0.270933 -0.0508,0.7112 h -6.89187 c 0.12418,0.564444 0.41769,1.010355 0.88053,1.337733 0.46285,0.327377 1.03858,0.491066 1.7272,0.491066 0.47413,0 0.89182,-0.06773 1.25307,-0.2032 0.37253,-0.146755 0.71684,-0.372533 1.03293,-0.677333 l 1.40547,1.524 c -0.85795,0.982133 -2.11102,1.4732 -3.7592,1.4732 -1.02729,0 -1.93604,-0.197556 -2.72627,-0.592667 -0.79022,-0.4064 -1.39982,-0.9652 -1.8288,-1.6764 -0.42897,-0.7112 -0.64346,-1.518355 -0.64346,-2.421466 0,-0.891822 0.20884,-1.693333 0.62653,-2.404533 0.42898,-0.722489 1.01036,-1.281289 1.74413,-1.6764 0.74507,-0.4064 1.5748,-0.6096 2.4892,-0.6096 0.89183,0 1.69898,0.191911 2.42147,0.575733 0.72249,0.383822 1.28693,0.936978 1.69333,1.659467 0.41769,0.7112 0.62654,1.540933 0.62654,2.4892 z m -4.7244,-2.726267 c -0.59831,0 -1.10067,0.169333 -1.50707,0.508 -0.4064,0.338667 -0.65476,0.801511 -0.74507,1.388533 h 4.48734 c -0.0903,-0.575733 -0.33867,-1.032933 -0.74507,-1.3716 -0.4064,-0.349955 -0.90311,-0.524933 -1.49013,-0.524933 z"
         style="font-style:normal;font-variant:normal;font-weight:bold;font-stretch:normal;font-size:16.93333244px;font-family:Montserrat;-inkscape-font-specification:'Montserrat Bold';stroke-width:0.26458332px;stroke:none;fill:#ffffff"
         id="path838"
         inkscape:connector-curvature="0"
         sodipodi:nodetypes="scccscccsccsccsscssscccs" />
      <path
         d="m 127.59905,92.718077 c -0.93698,0 -1.84574,-0.124178 -2.72627,-0.372533 -0.86924,-0.259645 -1.56915,-0.592667 -2.09973,-0.999067 l 0.93133,-2.065866 c 0.508,0.372533 1.11196,0.671689 1.81187,0.897466 0.69991,0.225778 1.39982,0.338667 2.09973,0.338667 0.77893,0 1.35467,-0.112889 1.7272,-0.338667 0.37253,-0.237067 0.5588,-0.547511 0.5588,-0.931333 0,-0.282222 -0.11289,-0.513644 -0.33866,-0.694266 -0.21449,-0.191911 -0.49672,-0.344311 -0.84667,-0.4572 -0.33867,-0.112889 -0.80151,-0.237067 -1.38853,-0.372534 -0.90311,-0.214489 -1.64254,-0.428977 -2.21827,-0.643466 -0.57573,-0.214489 -1.07244,-0.558801 -1.49013,-1.032934 -0.4064,-0.474133 -0.6096,-1.106311 -0.6096,-1.896533 0,-0.688622 0.18627,-1.309511 0.5588,-1.862666 0.37253,-0.564445 0.93133,-1.010356 1.6764,-1.337734 0.75635,-0.327377 1.6764,-0.491066 2.76013,-0.491066 0.75635,0 1.49578,0.09031 2.21827,0.270933 0.72249,0.180622 1.35466,0.440266 1.89653,0.778933 l -0.84667,2.0828 c -1.09502,-0.620889 -2.19004,-0.931333 -3.28506,-0.931333 -0.76765,0 -1.33774,0.124178 -1.71027,0.372533 -0.36125,0.248355 -0.54187,0.575733 -0.54187,0.982133 0,0.4064 0.20885,0.7112 0.62654,0.9144 0.42897,0.191911 1.07808,0.383823 1.94733,0.575734 0.90311,0.214489 1.64254,0.428977 2.21827,0.643466 0.57573,0.214489 1.0668,0.553156 1.4732,1.016 0.41769,0.462845 0.62653,1.089378 0.62653,1.8796 0,0.677333 -0.19191,1.298222 -0.57573,1.862667 -0.37253,0.553155 -0.93698,0.993422 -1.69334,1.3208 -0.75635,0.327377 -1.6764,0.491066 -2.76013,0.491066 z"
         style="font-style:normal;font-variant:normal;font-weight:bold;font-stretch:normal;font-size:16.93333244px;font-family:Montserrat;-inkscape-font-specification:'Montserrat Bold';stroke-width:0.26458332px;stroke:none;fill:#ffffff"
         id="path840"
         inkscape:connector-curvature="0"
         sodipodi:nodetypes="scccsscscccccsccscccscsccccsccs" />
      <path
         d="m 140.20882,92.074611 c -0.25964,0.191911 -0.58137,0.338666 -0.9652,0.440266 -0.37253,0.09031 -0.76764,0.135467 -1.18533,0.135467 -1.08373,0 -1.92476,-0.276578 -2.52307,-0.829733 -0.58702,-0.553156 -0.88053,-1.365956 -0.88053,-2.4384 v -3.742267 h -1.40547 v -2.032 h 1.40547 v -2.218266 h 2.6416 v 2.218266 h 2.26907 v 2.032 h -2.26907 v 3.7084 c 0,0.383822 0.096,0.682978 0.28787,0.897467 0.2032,0.2032 0.48542,0.3048 0.84666,0.3048 0.41769,0 0.77329,-0.112889 1.0668,-0.338667 z"
         style="font-style:normal;font-variant:normal;font-weight:bold;font-stretch:normal;font-size:16.93333244px;font-family:Montserrat;-inkscape-font-specification:'Montserrat Bold';stroke-width:0.26458332px;stroke:none;fill:#ffffff"
         id="path842"
         inkscape:connector-curvature="0"
         sodipodi:nodetypes="ccscsccccccccccscscc" />
      <path
         d="m 145.38275,83.269278 c 1.41111,0 2.49485,0.338667 3.2512,1.016 0.75635,0.666044 1.13453,1.676399 1.13453,3.031066 v 5.198533 h -2.47226 v -1.134533 c -0.49671,0.846667 -1.4224,1.27 -2.77707,1.27 -0.69991,0 -1.30951,-0.118533 -1.8288,-0.3556 -0.508,-0.237067 -0.89747,-0.564444 -1.1684,-0.982133 -0.27093,-0.417689 -0.4064,-0.891823 -0.4064,-1.4224 0,-0.846667 0.31609,-1.512711 0.94827,-1.998133 0.64347,-0.485423 1.63124,-0.728134 2.96333,-0.728134 h 2.09973 c 0,-0.575733 -0.17498,-1.016 -0.52493,-1.3208 -0.34995,-0.316089 -0.87489,-0.474133 -1.5748,-0.474133 -0.48542,0 -0.9652,0.07902 -1.43933,0.237067 -0.46285,0.146755 -0.85796,0.349955 -1.18534,0.6096 l -0.94826,-1.845734 c 0.49671,-0.349955 1.08937,-0.620889 1.778,-0.8128 0.69991,-0.191911 1.41675,-0.287866 2.15053,-0.287866 z m -0.2032,7.603066 c 0.45155,0 0.85231,-0.1016 1.20227,-0.3048 0.34995,-0.214489 0.59831,-0.524933 0.74506,-0.931333 v -0.931333 h -1.81186 c -1.08373,0 -1.6256,0.3556 -1.6256,1.066799 0,0.338667 0.12982,0.6096 0.38946,0.8128 0.27093,0.191911 0.63782,0.287867 1.10067,0.287867 z"
         style="font-style:normal;font-variant:normal;font-weight:bold;font-stretch:normal;font-size:16.93333244px;font-family:Montserrat;-inkscape-font-specification:'Montserrat Bold';stroke-width:0.26458332px;stroke:none;fill:#ffffff"
         id="path844"
         inkscape:connector-curvature="0"
         sodipodi:nodetypes="scscccscsscsccsccccsscccsscs" />
      <path
         d="m 158.03513,92.074611 c -0.25965,0.191911 -0.58138,0.338666 -0.9652,0.440266 -0.37253,0.09031 -0.76765,0.135467 -1.18534,0.135467 -1.08373,0 -1.92475,-0.276578 -2.52306,-0.829733 -0.58703,-0.553156 -0.88054,-1.365956 -0.88054,-2.4384 v -3.742267 h -1.40546 v -2.032 h 1.40546 v -2.218266 h 2.6416 v 2.218266 h 2.26907 v 2.032 h -2.26907 v 3.7084 c 0,0.383822 0.096,0.682978 0.28787,0.897467 0.2032,0.2032 0.48542,0.3048 0.84667,0.3048 0.41769,0 0.77329,-0.112889 1.0668,-0.338667 z"
         style="font-style:normal;font-variant:normal;font-weight:bold;font-stretch:normal;font-size:16.93333244px;font-family:Montserrat;-inkscape-font-specification:'Montserrat Bold';stroke-width:0.26458332px;stroke:none;fill:#ffffff"
         id="path846"
         inkscape:connector-curvature="0"
         sodipodi:nodetypes="ccscsccccccccccscscc" />
      <path
         d="m 159.53452,83.404744 h 2.6416 v 9.110133 h -2.6416 z m 1.3208,-1.269999 c -0.48542,0 -0.88053,-0.141111 -1.18533,-0.423334 -0.3048,-0.282222 -0.4572,-0.632177 -0.4572,-1.049866 0,-0.417689 0.1524,-0.767645 0.4572,-1.049867 0.3048,-0.282222 0.69991,-0.423333 1.18533,-0.423333 0.48542,0 0.88053,0.135467 1.18533,0.4064 0.3048,0.270933 0.4572,0.6096 0.4572,1.016 0,0.440267 -0.1524,0.807155 -0.4572,1.100666 -0.3048,0.282223 -0.69991,0.423334 -1.18533,0.423334 z"
         style="font-style:normal;font-variant:normal;font-weight:bold;font-stretch:normal;font-size:16.93333244px;font-family:Montserrat;-inkscape-font-specification:'Montserrat Bold';stroke-width:0.26458332px;stroke:none;fill:#ffffff"
         id="path848"
         inkscape:connector-curvature="0"
         sodipodi:nodetypes="cccccscssssscs" />
      <path
         d="m 167.69268,92.650344 c -0.75635,0 -1.49577,-0.09031 -2.21826,-0.270933 -0.72249,-0.191911 -1.29823,-0.428978 -1.7272,-0.7112 l 0.88053,-1.896534 c 0.4064,0.259645 0.89747,0.474134 1.4732,0.643467 0.57573,0.158045 1.14018,0.237067 1.69333,0.237067 1.1176,0 1.6764,-0.276578 1.6764,-0.829734 0,-0.259644 -0.1524,-0.445911 -0.4572,-0.5588 -0.3048,-0.112889 -0.77329,-0.208844 -1.40546,-0.287866 -0.74507,-0.112889 -1.36031,-0.242711 -1.84574,-0.389467 -0.48542,-0.146755 -0.90875,-0.4064 -1.27,-0.778933 -0.34995,-0.372533 -0.52493,-0.903111 -0.52493,-1.591733 0,-0.575733 0.16369,-1.083733 0.49107,-1.524 0.33867,-0.451556 0.82409,-0.801512 1.45626,-1.049867 0.64347,-0.248355 1.39982,-0.372533 2.26907,-0.372533 0.64347,0 1.28129,0.07338 1.91347,0.220133 0.64347,0.135467 1.17404,0.327378 1.59173,0.575733 l -0.88053,1.8796 c -0.80151,-0.451555 -1.6764,-0.677333 -2.62467,-0.677333 -0.56445,0 -0.98778,0.07902 -1.27,0.237067 -0.28222,0.158044 -0.42333,0.361244 -0.42333,0.6096 0,0.282222 0.1524,0.479777 0.4572,0.592666 0.3048,0.112889 0.79022,0.220134 1.45626,0.321734 0.74507,0.124177 1.35467,0.259644 1.8288,0.4064 0.47413,0.135467 0.88618,0.389467 1.23614,0.762 0.34995,0.372533 0.52493,0.891822 0.52493,1.557866 0,0.564445 -0.16933,1.0668 -0.508,1.507067 -0.33867,0.440267 -0.83538,0.784578 -1.49013,1.032933 -0.64347,0.237067 -1.41111,0.3556 -2.30294,0.3556 z"
         style="font-style:normal;font-variant:normal;font-weight:bold;font-stretch:normal;font-size:16.93333244px;font-family:Montserrat;-inkscape-font-specification:'Montserrat Bold';stroke-width:0.26458332px;stroke:none;fill:#ffffff"
         id="path850"
         inkscape:connector-curvature="0"
         sodipodi:nodetypes="sccccssccccsccscccscsccccsscs" />
      <path
         d="m 179.49945,92.074611 c -0.25965,0.191911 -0.58138,0.338666 -0.9652,0.440266 -0.37253,0.09031 -0.76764,0.135467 -1.18533,0.135467 -1.08373,0 -1.92476,-0.276578 -2.52307,-0.829733 -0.58702,-0.553156 -0.88053,-1.365956 -0.88053,-2.4384 v -3.742267 h -1.40547 v -2.032 h 1.40547 v -2.218266 h 2.6416 v 2.218266 h 2.26906 v 2.032 h -2.26906 v 3.7084 c 0,0.383822 0.096,0.682978 0.28786,0.897467 0.2032,0.2032 0.48542,0.3048 0.84667,0.3048 0.41769,0 0.77329,-0.112889 1.0668,-0.338667 z"
         style="font-style:normal;font-variant:normal;font-weight:bold;font-stretch:normal;font-size:16.93333244px;font-family:Montserrat;-inkscape-font-specification:'Montserrat Bold';stroke-width:0.26458332px;stroke:none;fill:#ffffff"
         id="path852"
         inkscape:connector-curvature="0"
         sodipodi:nodetypes="ccscsccccccccccscscc" />
      <path
         d="m 180.99884,83.404744 h 2.6416 v 9.110133 h -2.6416 z m 1.3208,-1.269999 c -0.48542,0 -0.88053,-0.141111 -1.18533,-0.423334 -0.3048,-0.282222 -0.4572,-0.632177 -0.4572,-1.049866 0,-0.417689 0.1524,-0.767645 0.4572,-1.049867 0.3048,-0.282222 0.69991,-0.423333 1.18533,-0.423333 0.48543,0 0.88054,0.135467 1.18534,0.4064 0.3048,0.270933 0.4572,0.6096 0.4572,1.016 0,0.440267 -0.1524,0.807155 -0.4572,1.100666 -0.3048,0.282223 -0.69991,0.423334 -1.18534,0.423334 z"
         style="font-style:normal;font-variant:normal;font-weight:bold;font-stretch:normal;font-size:16.93333244px;font-family:Montserrat;-inkscape-font-specification:'Montserrat Bold';stroke-width:0.26458332px;stroke:none;fill:#ffffff"
         id="path854"
         inkscape:connector-curvature="0"
         sodipodi:nodetypes="cccccscssssscs" />
      <path
         d="m 190.49474,92.650344 c -0.97085,0 -1.84573,-0.197556 -2.62466,-0.592667 -0.76765,-0.4064 -1.3716,-0.9652 -1.81187,-1.6764 -0.42898,-0.7112 -0.64347,-1.518355 -0.64347,-2.421466 0,-0.903111 0.21449,-1.710267 0.64347,-2.421467 0.44027,-0.7112 1.04422,-1.264355 1.81187,-1.659466 0.77893,-0.4064 1.65381,-0.6096 2.62466,-0.6096 0.95955,0 1.79493,0.2032 2.50613,0.6096 0.72249,0.395111 1.24743,0.965199 1.5748,1.710266 l -2.04893,1.100667 c -0.47413,-0.835378 -1.15711,-1.253067 -2.04893,-1.253067 -0.68863,0 -1.25872,0.225778 -1.71027,0.677334 -0.45155,0.451555 -0.67733,1.0668 -0.67733,1.845733 0,0.778933 0.22578,1.394178 0.67733,1.845733 0.45155,0.451555 1.02164,0.677333 1.71027,0.677333 0.90311,0 1.58608,-0.417689 2.04893,-1.253066 l 2.04893,1.1176 c -0.32737,0.722489 -0.85231,1.286933 -1.5748,1.693333 -0.7112,0.4064 -1.54658,0.6096 -2.50613,0.6096 z"
         style="font-style:normal;font-variant:normal;font-weight:bold;font-stretch:normal;font-size:16.93333244px;font-family:Montserrat;-inkscape-font-specification:'Montserrat Bold';stroke-width:0.26458332px;stroke:none;fill:#ffffff"
         id="path856"
         inkscape:connector-curvature="0"
         sodipodi:nodetypes="sccsccscccssssscccs" />
      <path
         d="m 199.1781,92.650344 c -0.75636,0 -1.49578,-0.09031 -2.21827,-0.270933 -0.72249,-0.191911 -1.29822,-0.428978 -1.7272,-0.7112 l 0.88053,-1.896534 c 0.4064,0.259645 0.89747,0.474134 1.4732,0.643467 0.57573,0.158045 1.14018,0.237067 1.69334,0.237067 1.1176,0 1.6764,-0.276578 1.6764,-0.829734 0,-0.259644 -0.1524,-0.445911 -0.4572,-0.5588 -0.3048,-0.112889 -0.77329,-0.208844 -1.40547,-0.287866 -0.74507,-0.112889 -1.36031,-0.242711 -1.84573,-0.389467 -0.48543,-0.146755 -0.90876,-0.4064 -1.27,-0.778933 -0.34996,-0.372533 -0.52494,-0.903111 -0.52494,-1.591733 0,-0.575733 0.16369,-1.083733 0.49107,-1.524 0.33867,-0.451556 0.82409,-0.801512 1.45627,-1.049867 0.64347,-0.248355 1.39982,-0.372533 2.26906,-0.372533 0.64347,0 1.28129,0.07338 1.91347,0.220133 0.64347,0.135467 1.17404,0.327378 1.59173,0.575733 l -0.88053,1.8796 c -0.80151,-0.451555 -1.6764,-0.677333 -2.62467,-0.677333 -0.56444,0 -0.98777,0.07902 -1.27,0.237067 -0.28222,0.158044 -0.42333,0.361244 -0.42333,0.6096 0,0.282222 0.1524,0.479777 0.4572,0.592666 0.3048,0.112889 0.79022,0.220134 1.45627,0.321734 0.74507,0.124177 1.35467,0.259644 1.8288,0.4064 0.47413,0.135467 0.88618,0.389467 1.23613,0.762 0.34995,0.372533 0.52493,0.891822 0.52493,1.557866 0,0.564445 -0.16933,1.0668 -0.508,1.507067 -0.33867,0.440267 -0.83538,0.784578 -1.49013,1.032933 -0.64347,0.237067 -1.41111,0.3556 -2.30293,0.3556 z"
         style="font-style:normal;font-variant:normal;font-weight:bold;font-stretch:normal;font-size:16.93333244px;font-family:Montserrat;-inkscape-font-specification:'Montserrat Bold';stroke-width:0.26458332px;stroke:none;fill:#ffffff"
         id="path858"
         inkscape:connector-curvature="0"
         sodipodi:nodetypes="sccccssccccsccscccscscccssscs" />
      <path
         style="font-style:normal;font-variant:normal;font-weight:bold;font-stretch:normal;font-size:16.93333244px;font-family:Montserrat;-inkscape-font-specification:'Montserrat Bold';stroke:none;stroke-width:0.99999994px;fill:#ffffff"
         d="M 32.058594 9.3066406 L 32.058594 12.464844 C 27.41264 12.466546 23.214365 13.46903 19.462891 15.472656 C 15.750892 17.47799 12.828648 20.251638 10.695312 23.792969 C 8.6046484 27.291636 7.5585937 31.238149 7.5585938 35.632812 C 7.5585938 40.027477 8.6046484 43.995775 10.695312 47.537109 C 12.828648 51.035776 15.750892 53.787635 19.462891 55.792969 C 23.217556 57.798299 27.419646 58.800781 32.070312 58.800781 C 36.72098 58.800781 40.903236 57.798299 44.615234 55.792969 C 48.327233 53.787635 51.249478 51.035776 53.382812 47.537109 C 55.516144 43.995775 56.583984 40.027477 56.583984 35.632812 C 56.583984 31.238149 55.516144 27.291636 53.382812 23.792969 C 52.433743 22.217514 51.320106 20.802708 50.058594 19.53125 L 41.306641 24.591797 C 42.478688 25.591183 43.454466 26.795552 44.230469 28.208984 C 45.467803 30.384983 46.087891 32.859479 46.087891 35.632812 C 46.087891 38.406147 45.467803 40.880642 44.230469 43.056641 C 43.035802 45.232639 41.371617 46.9404 39.238281 48.177734 C 37.10495 49.372401 34.715645 49.96875 32.070312 49.96875 C 29.424981 49.96875 27.035679 49.372401 24.902344 48.177734 C 22.769008 46.9404 21.084987 45.232639 19.847656 43.056641 C 18.652989 40.880642 18.054687 38.406147 18.054688 35.632812 C 18.054688 32.859479 18.652989 30.384983 19.847656 28.208984 C 21.084987 26.032986 22.769008 24.347011 24.902344 23.152344 C 27.032494 21.916857 29.417974 21.298718 32.058594 21.296875 L 32.058594 24.423828 L 45.134766 16.865234 L 32.058594 9.3066406 z "
         transform="matrix(0.26458333,0,0,0.26458333,12.645519,77.160367)"
         id="path822" />
    </g>
  </g>
</svg>
